#!OML:ASF E:\Steps\Project 1\Capture day 1\Session 2\Subject.ASF
:FULLY-SPECIFIED
:DEGREES
173
root 8.89437 16.273 31.7645 -155.304 -2.52468 179.962
lowerback -27.4057 -1.34109 -5.60549
upperback -1.93475 -0.622941 -0.31105
thorax 13.1606 -0.866765 2.58223
lowerneck 6.2246 -0.46363 -1.45766
upperneck -19.8639 -0.776093 6.29831
head -7.04848 -1.27363 2.4065
rclavicle -1.19271e-014 -8.34896e-015
rhumerus -33.8209 -15.6015 -80.8838
rradius 32.0366
rwrist -1.89712
rhand -5.49586 -53.5755
rfingers 7.12502
rthumb 20.3169 -82.5328
lclavicle -1.19271e-014 -8.34896e-015
lhumerus -26.3092 3.83452 82.9718
lradius 21.704
lwrist -6.51061
lhand -20.3546 -12.4692
lfingers 7.12502
lthumb 5.99746 17.4259
rfemur -25.6103 8.79522 19.2871
rtibia 12.612
rfoot -21.4575 -9.40257
rtoes -33.5333
lfemur -27.3365 -10.3265 -18.2215
ltibia 14.557
lfoot -11.3016 1.87125
ltoes -34.1733
174
root 8.89552 16.2719 31.7675 -155.234 -2.5668 179.999
lowerback -27.4568 -1.36082 -5.54582
upperback -1.85052 -0.651528 -0.283458
thorax 13.2905 -0.876446 2.5684
lowerneck 6.16331 -0.453251 -1.43283
upperneck -19.9772 -0.77598 6.28703
head -7.07452 -1.28362 2.40138
rclavicle 5.96354e-016 5.56597e-015
rhumerus -33.6697 -15.5272 -80.9527
rradius 32.016
rwrist -2.08751
rhand -5.56306 -53.587
rfingers 7.12502
rthumb 20.2523 -82.5512
lclavicle 5.96354e-016 5.56597e-015
lhumerus -26.0139 4.22897 82.8563
lradius 21.4466
lwrist -6.98443
lhand -20.3314 -12.5334
lfingers 7.12502
lthumb 6.01984 17.3611
rfemur -25.7311 8.87198 19.307
rtibia 12.6439
rfoot -21.5143 -9.53486
rtoes -34.1345
lfemur -27.4844 -10.5359 -18.0896
ltibia 14.6455
lfoot -11.3502 2.06748
ltoes -33.8993
175
root 8.89595 16.2705 31.7695 -155.209 -2.62557 179.98
lowerback -27.3881 -1.40031 -5.53143
upperback -1.80562 -0.703798 -0.259981
thorax 13.3119 -0.89724 2.56816
lowerneck 6.18149 -0.438245 -1.46219
upperneck -20.0844 -0.76802 6.27987
head -7.11281 -1.2839 2.40668
rclavicle 6.06293e-015 3.18055e-015
rhumerus -33.6217 -15.3219 -80.9887
rradius 32.0059
rwrist -2.30673
rhand -5.5735 -53.9012
rfingers 7.12502
rthumb 20.2423 -82.8664
lclavicle 6.06293e-015 3.18055e-015
lhumerus -25.7389 4.84018 82.6983
lradius 21.0356
lwrist -7.57773
lhand -20.3448 -12.6312
lfingers 7.12502
lthumb 6.0069 17.2636
rfemur -25.7915 8.84611 19.2927
rtibia 12.7133
rfoot -21.581 -9.65487
rtoes -34.2599
lfemur -27.6049 -10.6822 -18.0599
ltibia 14.7746
lfoot -11.4588 2.17609
ltoes -33.6331
176
root 8.89605 16.2695 31.7707 -155.182 -2.69522 179.926
lowerback -27.1416 -1.44264 -5.56281
upperback -1.90332 -0.778957 -0.243383
thorax 13.0708 -0.92932 2.57983
lowerneck 6.33957 -0.424772 -1.4913
upperneck -20.1891 -0.753782 6.25232
head -7.17578 -1.27604 2.40593
rclavicle -6.06293e-015 5.1684e-015
rhumerus -33.8439 -15.2861 -80.8638
rradius 31.8613
rwrist -2.23067
rhand -5.38577 -53.7416
rfingers 7.12502
rthumb 20.4227 -82.6876
lclavicle -6.06293e-015 5.1684e-015
lhumerus -25.9347 4.9381 82.633
lradius 20.9862
lwrist -7.67532
lhand -20.2291 -12.7167
lfingers 7.12502
lthumb 6.11862 17.175
rfemur -25.8138 8.7855 19.2355
rtibia 12.6866
rfoot -21.5677 -9.70088
rtoes -34.1237
lfemur -27.7123 -10.8084 -18.0785
ltibia 14.8918
lfoot -11.5742 2.16236
ltoes -33.5202
177
root 8.89744 16.2698 31.7749 -155.058 -2.79181 179.926
lowerback -27.2149 -1.43189 -5.50368
upperback -1.81796 -0.759907 -0.271724
thorax 13.2088 -0.916174 2.51939
lowerneck 6.214 -0.424661 -1.47135
upperneck -20.2872 -0.768542 6.25698
head -7.18469 -1.29405 2.40696
rclavicle 1.20265e-014 -3.97569e-016
rhumerus -33.7233 -15.7026 -80.7426
rradius 31.6046
rwrist -1.92482
rhand -5.07977 -52.9243
rfingers 7.12502
rthumb 20.7168 -81.8386
lclavicle 1.20265e-014 -3.97569e-016
lhumerus -25.8612 4.31038 82.7398
lradius 21.1694
lwrist -7.18367
lhand -20.4478 -12.9769
lfingers 7.12502
lthumb 5.9075 16.9208
rfemur -25.975 8.7657 19.2261
rtibia 12.6948
rfoot -21.563 -9.77585
rtoes -34.2507
lfemur -27.9469 -10.8841 -18.0067
ltibia 15.0158
lfoot -11.5995 2.11557
ltoes -33.5824
178
root 8.8997 16.2706 31.7795 -154.927 -2.85894 179.929
lowerback -27.0148 -1.41216 -5.51722
upperback -1.93045 -0.759284 -0.25838
thorax 12.9683 -0.913927 2.54544
lowerneck 6.26295 -0.444528 -1.4672
upperneck -20.4153 -0.803695 6.24817
head -7.23383 -1.31747 2.41024
rclavicle -1.88845e-015 -1.19271e-015
rhumerus -33.9252 -15.8528 -80.5468
rradius 31.4552
rwrist -1.82823
rhand -4.89465 -52.4016
rfingers 7.12502
rthumb 20.8946 -81.2963
lclavicle -1.88845e-015 -1.19271e-015
lhumerus -26.3645 3.12793 83.0155
lradius 21.8682
lwrist -6.09432
lhand -20.564 -12.9085
lfingers 7.12502
lthumb 5.79527 16.9922
rfemur -26.1846 8.79446 19.2027
rtibia 12.8022
rfoot -21.6402 -9.81944
rtoes -34.018
lfemur -28.1868 -10.877 -17.9463
ltibia 15.1395
lfoot -11.6418 2.09064
ltoes -33.7643
179
root 8.90096 16.2702 31.7806 -154.874 -2.87843 179.918
lowerback -26.8805 -1.41194 -5.49779
upperback -1.94187 -0.771252 -0.259859
thorax 12.8836 -0.914911 2.5298
lowerneck 6.26507 -0.444319 -1.43965
upperneck -20.5452 -0.815049 6.2312
head -7.27647 -1.33244 2.40482
rclavicle -1.88845e-015 -1.63003e-014
rhumerus -33.9834 -15.8035 -80.5087
rradius 31.3175
rwrist -1.81908
rhand -4.83078 -52.6064
rfingers 7.12502
rthumb 20.956 -81.4944
lclavicle -1.88845e-015 -1.63003e-014
lhumerus -26.7823 2.31042 83.1562
lradius 22.6164
lwrist -5.23434
lhand -20.0972 -12.0957
lfingers 7.12502
lthumb 6.24596 17.7922
rfemur -26.2587 8.80727 19.1744
rtibia 12.8386
rfoot -21.6898 -9.73689
rtoes -33.4843
lfemur -28.2964 -10.8761 -17.9233
ltibia 15.2274
lfoot -11.7258 2.08224
ltoes -33.4664
180
root 8.90109 16.2697 31.782 -154.781 -2.91 179.957
lowerback -26.9011 -1.39634 -5.31416
upperback -1.85799 -0.784006 -0.302868
thorax 12.9924 -0.907275 2.36945
lowerneck 6.13063 -0.453674 -1.30877
upperneck -20.6433 -0.842364 6.18491
head -7.28454 -1.36207 2.37148
rclavicle 1.23246e-014 -1.15295e-014
rhumerus -33.8531 -15.8058 -80.6094
rradius 31.1258
rwrist -1.71314
rhand -4.80169 -52.9075
rfingers 7.12502
rthumb 20.9839 -81.7924
lclavicle 1.23246e-014 -1.15295e-014
lhumerus -26.8331 1.93896 83.0878
lradius 22.956
lwrist -4.91668
lhand -20.3952 -12.488
lfingers 7.12502
lthumb 5.95823 17.4083
rfemur -26.3643 8.96269 19.1839
rtibia 12.8316
rfoot -21.6765 -9.9294
rtoes -33.7292
lfemur -28.4607 -10.8543 -17.8461
ltibia 15.3076
lfoot -11.7911 2.09239
ltoes -33.8335
181
root 8.90202 16.2689 31.7854 -154.583 -2.88551 179.989
lowerback -26.9588 -1.36638 -5.2439
upperback -1.83893 -0.760808 -0.296473
thorax 13.0434 -0.893576 2.34432
lowerneck 6.13818 -0.453245 -1.31473
upperneck -20.7443 -0.850058 6.19019
head -7.31852 -1.37273 2.37795
rclavicle 5.56597e-015 1.15295e-014
rhumerus -33.8508 -15.6764 -80.6044
rradius 31.0362
rwrist -1.77873
rhand -4.73457 -53.0009
rfingers 7.12502
rthumb 21.0484 -81.8786
lclavicle 5.56597e-015 1.15295e-014
lhumerus -26.8742 1.81473 83.0376
lradius 23.0383
lwrist -5.0587
lhand -20.433 -12.7958
lfingers 7.12502
lthumb 5.9218 17.1015
rfemur -26.6536 9.15438 19.1474
rtibia 12.9176
rfoot -21.6347 -10.1937
rtoes -34.2592
lfemur -28.7407 -10.7804 -17.7779
ltibia 15.3627
lfoot -11.812 2.13226
ltoes -34.5773
